# xmcd CD database file
#
# Track frame offsets:
#	150
#	12828
#	23525
#	39719
#	52006
#	63672
#	77017
#	88484
#	102010
#	115589
#	121729
#	128948
#	139134
#	154709
#	167833
#	180126
#	188308
#	199300
#	207367
#	222220
#	234131
#	244500
#	260238
#	269457
#	293491
#
# Disc length: 4004 seconds
#
# Revision: 0
# Processed by: cddbd v1.4PL0 Copyright (c) Steve Scherf et al.
# Submitted via: CDex 1.50beta9
#
DISCID=560fa219
DTITLE=Loungissima Series - the psych jazzy best of i marc 4
DYEAR=1900
DGENRE=Jazz
TTITLE0=Kim
TTITLE1=Happy-Beat
TTITLE2=Key Board
TTITLE3=Sambaquarta
TTITLE4=Rum and Coke
TTITLE5=Luna
TTITLE6=Distotion mind
TTITLE7=Asfalto in agguato
TTITLE8=On the Rain
TTITLE9=Max
TTITLE10=Berkey 70
TTITLE11=Inchiesta sulla mafia
TTITLE12=The Sound
TTITLE13=Boxes
TTITLE14=Nichole
TTITLE15=Scherzo in chiave di basso
TTITLE16=Beat Generation
TTITLE17=Corsa pericolosa
TTITLE18=Light
TTITLE19=Rita
TTITLE20=Ballan
TTITLE21=Catherine
TTITLE22=Suoni Distorti
TTITLE23=Chivas
TTITLE24=Data
EXTD=
EXTT0=
EXTT1=
EXTT2=
EXTT3=
EXTT4=
EXTT5=
EXTT6=
EXTT7=
EXTT8=
EXTT9=
EXTT10=
EXTT11=
EXTT12=
EXTT13=
EXTT14=
EXTT15=
EXTT16=
EXTT17=
EXTT18=
EXTT19=
EXTT20=
EXTT21=
EXTT22=
EXTT23=
EXTT24=
PLAYORDER=
